<svg width="85" height="85" viewBox="0 0 85 85" fill="none" xmlns="http://www.w3.org/2000/svg">
<path d="M83.6719 42.5C83.6719 65.2387 65.2387 83.6719 42.5 83.6719C19.7613 83.6719 1.32812 65.2387 1.32812 42.5C1.32812 19.7613 19.7613 1.32812 42.5 1.32812C65.2387 1.32812 83.6719 19.7613 83.6719 42.5ZM37.7377 64.3002L68.2846 33.7533C69.3218 32.716 69.3218 31.0341 68.2846 29.9969L64.5281 26.2404C63.4909 25.203 61.8089 25.203 60.7715 26.2404L35.8594 51.1524L24.2285 39.5215C23.1912 38.4842 21.5093 38.4842 20.4719 39.5215L16.7154 43.278C15.6782 44.3152 15.6782 45.9971 16.7154 47.0344L33.9811 64.3C35.0185 65.3374 36.7002 65.3374 37.7377 64.3002Z" fill="#0AAEC6"/>
</svg>
