<svg width="127" height="61" viewBox="0 0 127 61" fill="none" xmlns="http://www.w3.org/2000/svg">
<path d="M106 32C104.687 32 103.386 32.2587 102.173 32.7612C100.96 33.2638 99.8575 34.0003 98.9289 34.9289C97.0536 36.8043 96 39.3478 96 42C96 44.6522 97.0536 47.1957 98.9289 49.0711C99.8575 49.9997 100.96 50.7362 102.173 51.2388C103.386 51.7413 104.687 52 106 52C108.652 52 111.196 50.9464 113.071 49.0711C114.946 47.1957 116 44.6522 116 42C116 40.6868 115.741 39.3864 115.239 38.1732C114.736 36.9599 114 35.8575 113.071 34.9289C112.142 34.0003 111.04 33.2638 109.827 32.7612C108.614 32.2587 107.313 32 106 32ZM106 33C107.76 33 109.4 33.53 110.78 34.41L110.5 35H107H106L104.28 34.16L104.63 33.13C105.08 33.05 105.53 33 106 33ZM103.53 33.38L103.19 34.41L100.63 35.69L99.38 35.94C100.5 34.73 101.92 33.84 103.53 33.38ZM107 36H110L112.69 39.59L111.44 42.16L108.81 42.78L105.53 38.94L107 36ZM100.16 36.66L101 40L99.78 43.06L97.22 43.94C97.08 43.31 97 42.67 97 42C97 40.1 97.59 38.36 98.59 36.91L100.16 36.66ZM114.56 39.22C114.85 40.09 115 41.03 115 42C115 43.44 114.63 44.79 114.03 46H113L112.16 42.66L113.66 39.66L114.56 39.22ZM102 40H105L107.81 43.28L106 46L102.84 46.78L100.53 43.69L102 40ZM106 47L109 49L108.13 50.72C107.44 50.88 106.73 51 106 51C104.25 51 102.63 50.5 101.25 49.63L102.41 47.91L106 47ZM113 47H113.5C112.5 48.5 111 49.67 109.31 50.34L110 49L113 47Z" fill="white"/>
<g filter="url(#filter0_d_513_6355)">
<mask id="path-2-outside-1_513_6355" maskUnits="userSpaceOnUse" x="2" y="8" width="45" height="32" fill="black">
<rect fill="white" x="2" y="8" width="45" height="32"/>
<path d="M22.0116 32.9185H17.8615L4.17818 9.41455H14.3687L20.1215 21.7829L25.8742 9.41455H33.8869L22.0116 32.9185ZM25.6276 30.1244L33.4349 14.592V39H25.6276V30.1244ZM6.84909 17.7971L14.6564 31.6036V39H6.84909V17.7971ZM37.3511 9.41455H45.3638V39H37.3511V9.41455Z"/>
</mask>
<path d="M22.0116 32.9185H17.8615L4.17818 9.41455H14.3687L20.1215 21.7829L25.8742 9.41455H33.8869L22.0116 32.9185ZM25.6276 30.1244L33.4349 14.592V39H25.6276V30.1244ZM6.84909 17.7971L14.6564 31.6036V39H6.84909V17.7971ZM37.3511 9.41455H45.3638V39H37.3511V9.41455Z" fill="#0AAEC6"/>
<path d="M22.0116 32.9185V33.7185H22.5038L22.7257 33.2793L22.0116 32.9185ZM17.8615 32.9185L17.1701 33.321L17.4015 33.7185H17.8615V32.9185ZM4.17818 9.41455V8.61454H2.78675L3.48681 9.81704L4.17818 9.41455ZM14.3687 9.41455L15.0941 9.07716L14.8789 8.61454H14.3687V9.41455ZM20.1215 21.7829L19.3961 22.1203L20.1215 23.6799L20.8468 22.1203L20.1215 21.7829ZM25.8742 9.41455V8.61454H25.364L25.1488 9.07716L25.8742 9.41455ZM33.8869 9.41455L34.6009 9.77531L35.1874 8.61454H33.8869V9.41455ZM25.6276 30.1244L24.9129 29.7651L24.8276 29.9346V30.1244H25.6276ZM33.4349 14.592H34.2349L32.7201 14.2327L33.4349 14.592ZM33.4349 39V39.8H34.2349V39H33.4349ZM25.6276 39H24.8276V39.8H25.6276V39ZM6.84909 17.7971L7.54546 17.4033L6.04909 14.7571V17.7971H6.84909ZM14.6564 31.6036H15.4564V31.3931L15.3527 31.2099L14.6564 31.6036ZM14.6564 39V39.8H15.4564V39H14.6564ZM6.84909 39H6.04909V39.8H6.84909V39ZM22.0116 32.1185H17.8615V33.7185H22.0116V32.1185ZM18.5528 32.516L4.86956 9.01205L3.48681 9.81704L17.1701 33.321L18.5528 32.516ZM4.17818 10.2145H14.3687V8.61454H4.17818V10.2145ZM13.6434 9.75193L19.3961 22.1203L20.8468 21.4455L15.0941 9.07716L13.6434 9.75193ZM20.8468 22.1203L26.5996 9.75193L25.1488 9.07716L19.3961 21.4455L20.8468 22.1203ZM25.8742 10.2145H33.8869V8.61454H25.8742V10.2145ZM33.1729 9.05378L21.2976 32.5578L22.7257 33.2793L34.6009 9.77531L33.1729 9.05378ZM26.3424 30.4836L34.1497 14.9513L32.7201 14.2327L24.9129 29.7651L26.3424 30.4836ZM32.6349 14.592V39H34.2349V14.592H32.6349ZM33.4349 38.2H25.6276V39.8H33.4349V38.2ZM26.4276 39V30.1244H24.8276V39H26.4276ZM6.15272 18.1909L13.96 31.9974L15.3527 31.2099L7.54546 17.4033L6.15272 18.1909ZM13.8564 31.6036V39H15.4564V31.6036H13.8564ZM14.6564 38.2H6.84909V39.8H14.6564V38.2ZM7.64909 39V17.7971H6.04909V39H7.64909ZM37.3511 9.41455V8.61454H36.5511V9.41455H37.3511ZM45.3638 9.41455H46.1638V8.61454H45.3638V9.41455ZM45.3638 39V39.8H46.1638V39H45.3638ZM37.3511 39H36.5511V39.8H37.3511V39ZM37.3511 10.2145H45.3638V8.61454H37.3511V10.2145ZM44.5638 9.41455V39H46.1638V9.41455H44.5638ZM45.3638 38.2H37.3511V39.8H45.3638V38.2ZM38.1511 39V9.41455H36.5511V39H38.1511Z" fill="white" mask="url(#path-2-outside-1_513_6355)"/>
</g>
<g filter="url(#filter1_d_513_6355)">
<mask id="path-4-outside-2_513_6355" maskUnits="userSpaceOnUse" x="48" y="20" width="49" height="32" fill="black">
<rect fill="white" x="48" y="20" width="49" height="32"/>
<path d="M57.8618 26.8385L49.8491 45.6582V21.4145H57.8618V26.8385ZM58.0262 51H49.8491L62.2585 21.4145H70.4767L58.0262 51ZM61.2313 48.6578L65.9156 37.6865L70.6 51H61.9709L61.2313 48.6578ZM79.9453 21.0858H88.6155L95.4777 51H86.9718L86.5198 49.0687H82.6984L83.8078 42.6996H85.0406L79.9453 21.0858ZM80.2329 51H71.6449L78.466 23.8389L82.2875 39.8644L80.2329 51Z"/>
</mask>
<path d="M57.8618 26.8385L49.8491 45.6582V21.4145H57.8618V26.8385ZM58.0262 51H49.8491L62.2585 21.4145H70.4767L58.0262 51ZM61.2313 48.6578L65.9156 37.6865L70.6 51H61.9709L61.2313 48.6578ZM79.9453 21.0858H88.6155L95.4777 51H86.9718L86.5198 49.0687H82.6984L83.8078 42.6996H85.0406L79.9453 21.0858ZM80.2329 51H71.6449L78.466 23.8389L82.2875 39.8644L80.2329 51Z" fill="#0AAEC6"/>
<path d="M57.8618 26.8385L58.5979 27.1519L58.6618 27.0018V26.8385H57.8618ZM49.8491 45.6582H49.0491L50.5852 45.9716L49.8491 45.6582ZM49.8491 21.4145V20.6145H49.0491V21.4145H49.8491ZM57.8618 21.4145H58.6618V20.6145H57.8618V21.4145ZM58.0262 51V51.8H58.5575L58.7635 51.3103L58.0262 51ZM49.8491 51L49.1114 50.6906L48.646 51.8H49.8491V51ZM62.2585 21.4145V20.6145H61.7266L61.5208 21.1051L62.2585 21.4145ZM70.4767 21.4145L71.2141 21.7249L71.6813 20.6145H70.4767V21.4145ZM61.2313 48.6578L60.4955 48.3437L60.3792 48.6162L60.4684 48.8987L61.2313 48.6578ZM65.9156 37.6865L66.6703 37.421L65.9876 35.4807L65.1799 37.3724L65.9156 37.6865ZM70.6 51V51.8H71.7296L71.3547 50.7345L70.6 51ZM61.9709 51L61.208 51.2409L61.3846 51.8H61.9709V51ZM57.1258 26.5252L49.113 45.3448L50.5852 45.9716L58.5979 27.1519L57.1258 26.5252ZM50.6491 45.6582V21.4145H49.0491V45.6582H50.6491ZM49.8491 22.2145H57.8618V20.6145H49.8491V22.2145ZM57.0618 21.4145V26.8385H58.6618V21.4145H57.0618ZM58.0262 50.2H49.8491V51.8H58.0262V50.2ZM50.5868 51.3094L62.9963 21.724L61.5208 21.1051L49.1114 50.6906L50.5868 51.3094ZM62.2585 22.2145H70.4767V20.6145H62.2585V22.2145ZM69.7394 21.1042L57.2888 50.6897L58.7635 51.3103L71.2141 21.7249L69.7394 21.1042ZM61.967 48.972L66.6514 38.0007L65.1799 37.3724L60.4955 48.3437L61.967 48.972ZM65.161 37.9521L69.8454 51.2655L71.3547 50.7345L66.6703 37.421L65.161 37.9521ZM70.6 50.2H61.9709V51.8H70.6V50.2ZM62.7338 50.7591L61.9941 48.4169L60.4684 48.8987L61.208 51.2409L62.7338 50.7591ZM79.9453 21.0858V20.2858H78.9348L79.1666 21.2694L79.9453 21.0858ZM88.6155 21.0858L89.3952 20.9069L89.2527 20.2858H88.6155V21.0858ZM95.4777 51V51.8H96.482L96.2574 50.8211L95.4777 51ZM86.9718 51L86.1929 51.1823L86.3375 51.8H86.9718V51ZM86.5198 49.0687L87.2988 48.8864L87.1542 48.2687H86.5198V49.0687ZM82.6984 49.0687L81.9103 48.9314L81.747 49.8687H82.6984V49.0687ZM83.8078 42.6996V41.8996H83.1351L83.0197 42.5623L83.8078 42.6996ZM85.0406 42.6996V43.4996H86.0511L85.8192 42.5161L85.0406 42.6996ZM80.2329 51V51.8H80.8988L81.0196 51.1452L80.2329 51ZM71.6449 51L70.869 50.8051L70.6192 51.8H71.6449V51ZM78.466 23.8389L79.2442 23.6533L77.6901 23.6441L78.466 23.8389ZM82.2875 39.8644L83.0742 40.0095L83.1049 39.8433L83.0657 39.6788L82.2875 39.8644ZM79.9453 21.8858H88.6155V20.2858H79.9453V21.8858ZM87.8357 21.2647L94.6979 51.1789L96.2574 50.8211L89.3952 20.9069L87.8357 21.2647ZM95.4777 50.2H86.9718V51.8H95.4777V50.2ZM87.7508 50.8177L87.2988 48.8864L85.7409 49.251L86.1929 51.1823L87.7508 50.8177ZM86.5198 48.2687H82.6984V49.8687H86.5198V48.2687ZM83.4865 49.206L84.596 42.8369L83.0197 42.5623L81.9103 48.9314L83.4865 49.206ZM83.8078 43.4996H85.0406V41.8996H83.8078V43.4996ZM85.8192 42.5161L80.7239 20.9023L79.1666 21.2694L84.2619 42.8832L85.8192 42.5161ZM80.2329 50.2H71.6449V51.8H80.2329V50.2ZM72.4208 51.1949L79.2419 24.0338L77.6901 23.6441L70.869 50.8051L72.4208 51.1949ZM77.6878 24.0245L81.5093 40.0499L83.0657 39.6788L79.2442 23.6533L77.6878 24.0245ZM81.5008 39.7192L79.4462 50.8548L81.0196 51.1452L83.0742 40.0095L81.5008 39.7192Z" fill="white" mask="url(#path-4-outside-2_513_6355)"/>
</g>
<ellipse cx="116" cy="53" rx="11" ry="1" fill="black" fill-opacity="0.1"/>
<defs>
<filter id="filter0_d_513_6355" x="0.786621" y="8.61456" width="47.377" height="35.1854" filterUnits="userSpaceOnUse" color-interpolation-filters="sRGB">
<feFlood flood-opacity="0" result="BackgroundImageFix"/>
<feColorMatrix in="SourceAlpha" type="matrix" values="0 0 0 0 0 0 0 0 0 0 0 0 0 0 0 0 0 0 127 0" result="hardAlpha"/>
<feOffset dy="2"/>
<feGaussianBlur stdDeviation="1"/>
<feComposite in2="hardAlpha" operator="out"/>
<feColorMatrix type="matrix" values="0 0 0 0 0 0 0 0 0 0 0 0 0 0 0 0 0 0 0.25 0"/>
<feBlend mode="normal" in2="BackgroundImageFix" result="effect1_dropShadow_513_6355"/>
<feBlend mode="normal" in="SourceGraphic" in2="effect1_dropShadow_513_6355" result="shape"/>
</filter>
<filter id="filter1_d_513_6355" x="46.646" y="20.2858" width="51.8359" height="35.5142" filterUnits="userSpaceOnUse" color-interpolation-filters="sRGB">
<feFlood flood-opacity="0" result="BackgroundImageFix"/>
<feColorMatrix in="SourceAlpha" type="matrix" values="0 0 0 0 0 0 0 0 0 0 0 0 0 0 0 0 0 0 127 0" result="hardAlpha"/>
<feOffset dy="2"/>
<feGaussianBlur stdDeviation="1"/>
<feComposite in2="hardAlpha" operator="out"/>
<feColorMatrix type="matrix" values="0 0 0 0 0 0 0 0 0 0 0 0 0 0 0 0 0 0 0.25 0"/>
<feBlend mode="normal" in2="BackgroundImageFix" result="effect1_dropShadow_513_6355"/>
<feBlend mode="normal" in="SourceGraphic" in2="effect1_dropShadow_513_6355" result="shape"/>
</filter>
</defs>
</svg>
