<svg xmlns="http://www.w3.org/2000/svg" width="30" height="27" viewBox="0 0 30 27" fill="none">
  <path d="M26.3861 13.5H21.844V9.64286C21.844 7.5154 23.4735 5.78571 25.4776 5.78571H25.9319C26.687 5.78571 27.2945 5.14085 27.2945 4.33929V1.44643C27.2945 0.644866 26.687 0 25.9319 0H25.4776C20.4586 0 16.3935 4.31518 16.3935 9.64286V24.1071C16.3935 25.7042 17.6142 27 19.1187 27H26.3861C27.8906 27 29.1113 25.7042 29.1113 24.1071V16.3929C29.1113 14.7958 27.8906 13.5 26.3861 13.5ZM10.0346 13.5H5.49249V9.64286C5.49249 7.5154 7.12196 5.78571 9.12616 5.78571H9.58036C10.3355 5.78571 10.943 5.14085 10.943 4.33929V1.44643C10.943 0.644866 10.3355 0 9.58036 0H9.12616C4.10716 0 0.0419922 4.31518 0.0419922 9.64286V24.1071C0.0419922 25.7042 1.26268 27 2.76724 27H10.0346C11.5391 27 12.7598 25.7042 12.7598 24.1071V16.3929C12.7598 14.7958 11.5391 13.5 10.0346 13.5Z" fill="white"/>
</svg>